<svg width="64" height="64" viewBox="0 0 64 64" fill="none" xmlns="http://www.w3.org/2000/svg">
<rect width="64" height="64" rx="12" fill="url(#paint0_linear_14_5256)"/>
<path d="M51.0771 12.6714C52.2411 11.5078 54.1282 11.5076 55.292 12.6714C56.4558 13.8353 56.4556 15.7223 55.292 16.8863L32.8184 39.3609C31.1981 40.9811 28.5705 40.9811 26.9502 39.3609L20.1084 32.5191C18.9446 31.3553 18.9448 29.4682 20.1084 28.3043C21.2723 27.1403 23.1593 27.1403 24.3232 28.3043L28.8057 32.7857C29.4012 33.3813 30.3673 33.3813 30.9629 32.7857L51.0771 12.6714Z" fill="white" stroke="white" stroke-width="0.564605"/>
<path d="M29.3258 12.0927C33.5554 12.0927 37.4832 13.3845 40.7363 15.5952C42.3115 16.6657 42.3201 18.8834 40.9734 20.2301C39.6705 21.533 37.5817 21.5156 35.9771 20.6099C34.0123 19.5008 31.7429 18.8679 29.3258 18.8679C21.842 18.8679 15.7753 24.9347 15.7753 32.4184C15.7753 39.9022 21.842 45.969 29.3258 45.969C36.2454 45.969 41.9536 40.7824 42.7749 34.0847C42.9048 33.0249 43.3063 31.9975 44.0693 31.2505L44.5524 30.7775C46.4505 28.9192 49.6516 29.7621 49.6516 32.4184C49.6516 43.6441 40.5514 52.7442 29.3258 52.7442C18.1002 52.7442 9 43.6441 9 32.4184C9 21.1928 18.1002 12.0927 29.3258 12.0927Z" fill="white"/>
<defs>
<linearGradient id="paint0_linear_14_5256" x1="32" y1="0" x2="32" y2="64" gradientUnits="userSpaceOnUse">
<stop stop-color="#FF7900"/>
<stop offset="1" stop-color="#FF3902"/>
</linearGradient>
</defs>
</svg>
