<svg width="120" height="25" viewBox="0 0 120 25" fill="none" xmlns="http://www.w3.org/2000/svg">
<path d="M7.44268 19.4679C6.10354 19.4679 4.92092 19.2374 3.89482 18.7764C2.86872 18.2977 2.06002 17.624 1.46871 16.7552C1.18603 16.3314 0.968932 15.865 0.817415 15.3561C0.528402 14.3854 1.36981 13.5371 2.36486 13.5371C3.32178 13.5371 4.05274 14.3648 4.56182 15.1908C4.68236 15.3864 4.82525 15.571 4.99048 15.7446C5.58179 16.3297 6.3905 16.6222 7.41659 16.6222C8.30356 16.6222 9.00791 16.4094 9.52965 15.9839C10.0514 15.5407 10.3123 14.9556 10.3123 14.2286C10.3123 13.4662 10.0775 12.8723 9.60792 12.4467C9.15574 12.0212 8.54704 11.6755 7.78181 11.4095C7.01659 11.1436 6.19919 10.8599 5.32962 10.5585C3.92091 10.062 2.84264 9.42373 2.0948 8.64361C1.36436 7.86348 0.999141 6.82626 0.999141 5.53195C0.981749 4.43268 1.23393 3.49298 1.75567 2.71285C2.29481 1.91499 3.02525 1.3033 3.94699 0.877773C4.86874 0.434518 5.92962 0.212891 7.12963 0.212891C8.34704 0.212891 9.41661 0.434518 10.3384 0.877773C11.2775 1.32103 12.0079 1.94159 12.5297 2.73944C12.7417 3.05322 12.9147 3.3903 13.0488 3.75069C13.4055 4.71008 12.5571 5.58514 11.5506 5.58514C10.5855 5.58514 9.82119 4.71593 9.17745 3.98281C9.13997 3.94013 9.10085 3.89801 9.06009 3.85645C8.59052 3.34227 7.92964 3.08518 7.07746 3.08518C6.34702 3.06745 5.72962 3.25362 5.22527 3.64369C4.73831 4.01602 4.49483 4.56566 4.49483 5.2926C4.49483 5.91315 4.68613 6.4096 5.06874 6.78193C5.45136 7.13654 5.9731 7.43795 6.63398 7.68617C7.29485 7.9344 8.05138 8.20035 8.90356 8.48403C9.80792 8.80318 10.634 9.17551 11.3818 9.60104C12.1297 10.0266 12.7297 10.5939 13.1819 11.3031C13.634 11.9946 13.8601 12.89 13.8601 13.9893C13.8601 14.9644 13.6167 15.8687 13.1297 16.702C12.6427 17.5353 11.921 18.2091 10.9645 18.7232C10.0079 19.2197 8.834 19.4679 7.44268 19.4679Z" fill="#1E1E1E"/>
<path d="M16.7996 19.4322C15.8775 19.4322 15.13 18.6701 15.13 17.7301V1.98566C15.13 1.04561 15.8775 0.283553 16.7996 0.283553C17.7217 0.283553 18.4692 1.04561 18.4692 1.98565V8.26215C18.904 7.53521 19.4866 6.96784 20.2171 6.56005C20.9649 6.13452 21.8171 5.92176 22.7736 5.92176C24.3736 5.92176 25.6084 6.43594 26.478 7.46429C27.3649 8.49264 27.8084 9.99971 27.8084 11.9855V17.7434C27.8084 18.6761 27.0668 19.4322 26.1519 19.4322C25.237 19.4322 24.4954 18.6761 24.4954 17.7434V12.3046C24.4954 11.1699 24.2693 10.3011 23.8171 9.69829C23.3823 9.09547 22.6866 8.79405 21.7301 8.79405C20.791 8.79405 20.0084 9.13093 19.3823 9.80468C18.7736 10.4784 18.4692 11.4181 18.4692 12.6238V17.7301C18.4692 18.6701 17.7217 19.4322 16.7996 19.4322Z" fill="#1E1E1E"/>
<path d="M54.3834 25.0001C53.4614 25.0001 52.7139 24.238 52.7139 23.298V7.62178C52.7139 6.7028 53.4446 5.95782 54.346 5.95782C55.1257 5.95782 55.7965 6.52001 55.9474 7.29988L56.053 7.84608C56.4704 7.26098 57.0183 6.74681 57.6965 6.30355C58.3922 5.8603 59.2878 5.63867 60.3835 5.63867C61.6009 5.63867 62.6879 5.94009 63.6444 6.54291C64.6009 7.14574 65.3575 7.97019 65.914 9.01628C66.4705 10.0624 66.7488 11.2503 66.7488 12.58C66.7488 13.9098 66.4705 15.0977 65.914 16.1438C65.3575 17.1722 64.6009 17.9878 63.6444 18.5906C62.6879 19.1757 61.6009 19.4682 60.3835 19.4682C59.4096 19.4682 58.5574 19.2821 57.827 18.9097C57.0965 18.5374 56.5052 18.0144 56.053 17.3406V23.298C56.053 24.238 55.3055 25.0001 54.3834 25.0001ZM59.6792 16.4896C60.74 16.4896 61.6183 16.1261 62.314 15.3991C63.0096 14.6722 63.3574 13.7325 63.3574 12.58C63.3574 11.4276 63.0096 10.479 62.314 9.73435C61.6183 8.98968 60.74 8.61735 59.6792 8.61735C58.6009 8.61735 57.7139 8.98968 57.0183 9.73435C56.34 10.4613 56.0009 11.401 56.0009 12.5535C56.0009 13.7059 56.34 14.6545 57.0183 15.3991C57.7139 16.1261 58.6009 16.4896 59.6792 16.4896Z" fill="#1E1E1E"/>
<path d="M69.836 25.0001C68.9139 25.0001 68.1665 24.238 68.1665 23.298V7.62178C68.1665 6.7028 68.8972 5.95782 69.7986 5.95782C70.5783 5.95782 71.2491 6.52001 71.4 7.29988L71.5056 7.84608C71.923 7.26098 72.4708 6.74681 73.1491 6.30355C73.8448 5.8603 74.7404 5.63867 75.8361 5.63867C77.0535 5.63867 78.1405 5.94009 79.097 6.54291C80.0535 7.14574 80.8101 7.97019 81.3666 9.01628C81.9231 10.0624 82.2014 11.2503 82.2014 12.58C82.2014 13.9098 81.9231 15.0977 81.3666 16.1438C80.8101 17.1722 80.0535 17.9878 79.097 18.5906C78.1405 19.1757 77.0535 19.4682 75.8361 19.4682C74.8622 19.4682 74.01 19.2821 73.2795 18.9097C72.5491 18.5374 71.9578 18.0144 71.5056 17.3406V23.298C71.5056 24.238 70.7581 25.0001 69.836 25.0001ZM75.1317 16.4896C76.1926 16.4896 77.0709 16.1261 77.7666 15.3991C78.4622 14.6722 78.81 13.7325 78.81 12.58C78.81 11.4276 78.4622 10.479 77.7666 9.73435C77.0709 8.98968 76.1926 8.61735 75.1317 8.61735C74.0535 8.61735 73.1665 8.98968 72.4708 9.73435C71.7926 10.4613 71.4534 11.401 71.4534 12.5535C71.4534 13.7059 71.7926 14.6545 72.4708 15.3991C73.1665 16.1261 74.0535 16.4896 75.1317 16.4896Z" fill="#1E1E1E"/>
<path d="M88.08 19.4682C86.9669 19.4682 86.0539 19.2909 85.3408 18.9363C84.6278 18.564 84.0973 18.0764 83.7495 17.4736C83.4016 16.8708 83.2277 16.2059 83.2277 15.4789C83.2277 14.2556 83.6973 13.2627 84.6364 12.5003C85.5756 11.7379 86.9843 11.3567 88.8626 11.3567H92.1496V11.0375C92.1496 10.1333 91.8974 9.4684 91.393 9.04287C90.8887 8.61735 90.2626 8.40458 89.5147 8.40458C88.8365 8.40458 88.2452 8.57302 87.7408 8.90989C87.6405 8.97336 87.5478 9.04314 87.4626 9.11923C86.8515 9.66517 86.2151 10.346 85.4026 10.346C84.4033 10.346 83.5872 9.43603 84.0483 8.53233C84.171 8.29195 84.3149 8.0632 84.4799 7.84608C85.0364 7.13687 85.7495 6.5961 86.6191 6.22377C87.4886 5.8337 88.4626 5.63867 89.5408 5.63867C91.3843 5.63867 92.8365 6.10852 93.8974 7.04822C94.9583 7.98792 95.4887 9.31769 95.4887 11.0375V17.5915C95.4887 18.4518 94.8047 19.1491 93.9609 19.1491C93.2047 19.1491 92.5622 18.585 92.45 17.8226L92.3322 17.0215C91.9496 17.7307 91.4104 18.3158 90.7148 18.7768C90.0365 19.2377 89.1582 19.4682 88.08 19.4682ZM88.8365 16.8087C89.793 16.8087 90.5322 16.4896 91.0539 15.8513C91.593 15.213 91.9322 14.424 92.0713 13.4843H89.2278C88.3408 13.4843 87.706 13.6527 87.3234 13.9896C86.9408 14.3087 86.7495 14.7077 86.7495 15.1864C86.7495 15.7006 86.9408 16.0995 87.3234 16.3832C87.706 16.6669 88.2104 16.8087 88.8365 16.8087Z" fill="#1E1E1E"/>
<path d="M102.458 19.4682C101.31 19.4682 100.301 19.2821 99.4318 18.9097C98.5622 18.5197 97.8665 17.9878 97.3448 17.314C97.2282 17.1634 97.122 17.0075 97.0262 16.8463C96.4879 15.9401 97.3202 14.9736 98.3594 14.9736C99.1814 14.9736 99.8681 15.6282 100.477 16.1911C100.518 16.2292 100.561 16.2667 100.606 16.3034C101.075 16.658 101.675 16.8353 102.406 16.8353C103.136 16.8353 103.667 16.6846 103.997 16.3832C104.345 16.0818 104.519 15.736 104.519 15.346C104.519 14.7786 104.275 14.3974 103.788 14.2024C103.301 13.9896 102.623 13.7857 101.754 13.5907C101.197 13.4666 100.632 13.3159 100.058 13.1385C99.4839 12.9612 98.9535 12.7396 98.4665 12.4737C97.997 12.19 97.6143 11.8354 97.3187 11.4099C97.023 10.9666 96.8752 10.4258 96.8752 9.78754C96.8752 8.61735 97.3274 7.63332 98.2317 6.83546C99.1535 6.0376 100.44 5.63867 102.093 5.63867C103.623 5.63867 104.84 6.00214 105.745 6.72908C106.186 7.07738 106.542 7.48878 106.812 7.96326C107.301 8.82169 106.52 9.73435 105.547 9.73435C104.782 9.73435 104.182 9.06427 103.544 8.63524C103.183 8.39282 102.691 8.27161 102.067 8.27161C101.44 8.27161 100.954 8.39572 100.606 8.64394C100.275 8.89216 100.11 9.20244 100.11 9.57478C100.11 9.96484 100.362 10.2751 100.867 10.5056C101.371 10.7361 102.04 10.9489 102.875 11.1439C103.78 11.3567 104.606 11.596 105.354 11.862C106.119 12.1102 106.727 12.4914 107.18 13.0056C107.632 13.502 107.858 14.2201 107.858 15.1598C107.875 15.9754 107.667 16.7112 107.232 17.3672C106.797 18.0232 106.171 18.5374 105.354 18.9097C104.536 19.2821 103.571 19.4682 102.458 19.4682Z" fill="#1E1E1E"/>
<path d="M114.599 19.4682C113.451 19.4682 112.442 19.2821 111.572 18.9097C110.703 18.5197 110.007 17.9878 109.486 17.314C109.369 17.1634 109.263 17.0075 109.167 16.8463C108.629 15.9401 109.461 14.9736 110.5 14.9736C111.322 14.9736 112.009 15.6282 112.618 16.1911C112.659 16.2292 112.702 16.2667 112.746 16.3034C113.216 16.658 113.816 16.8353 114.546 16.8353C115.277 16.8353 115.807 16.6846 116.138 16.3832C116.486 16.0818 116.66 15.736 116.66 15.346C116.66 14.7786 116.416 14.3974 115.929 14.2024C115.442 13.9896 114.764 13.7857 113.894 13.5907C113.338 13.4666 112.773 13.3159 112.199 13.1385C111.625 12.9612 111.094 12.7396 110.607 12.4737C110.138 12.19 109.755 11.8354 109.459 11.4099C109.164 10.9666 109.016 10.4258 109.016 9.78754C109.016 8.61735 109.468 7.63332 110.372 6.83546C111.294 6.0376 112.581 5.63867 114.233 5.63867C115.764 5.63867 116.981 6.00214 117.886 6.72908C118.327 7.07738 118.683 7.48878 118.953 7.96326C119.441 8.82169 118.661 9.73435 117.687 9.73435C116.923 9.73435 116.323 9.06427 115.685 8.63524C115.324 8.39282 114.832 8.27161 114.207 8.27161C113.581 8.27161 113.094 8.39572 112.746 8.64394C112.416 8.89216 112.251 9.20244 112.251 9.57478C112.251 9.96484 112.503 10.2751 113.007 10.5056C113.512 10.7361 114.181 10.9489 115.016 11.1439C115.92 11.3567 116.746 11.596 117.494 11.862C118.26 12.1102 118.868 12.4914 119.32 13.0056C119.773 13.502 119.999 14.2201 119.999 15.1598C120.016 15.9754 119.807 16.7112 119.373 17.3672C118.938 18.0232 118.312 18.5374 117.494 18.9097C116.677 19.2821 115.712 19.4682 114.599 19.4682Z" fill="#1E1E1E"/>
<path fill-rule="evenodd" clip-rule="evenodd" d="M52.6172 2.48705C53.2446 3.12668 53.2446 4.16373 52.6172 4.80336L41.5512 16.0849C40.699 16.9536 39.3175 16.9536 38.4653 16.0849L35.0965 12.6505C34.4691 12.0109 34.4691 10.9738 35.0965 10.3342C35.7239 9.69454 36.7412 9.69454 37.3686 10.3342L39.5756 12.5841C39.8145 12.8278 40.202 12.8278 40.441 12.5841L50.3451 2.48705C50.9726 1.84742 51.9898 1.84742 52.6172 2.48705Z" fill="#1E1E1E"/>
<path d="M39.733 2.29639C41.8156 2.29639 43.7497 2.9449 45.3515 4.05464C46.1271 4.59203 46.1314 5.70526 45.4682 6.38131C44.8267 7.03533 43.7982 7.02662 43.0081 6.57196C42.0406 6.0152 40.9232 5.69749 39.733 5.69749C36.048 5.69749 33.0607 8.74294 33.0607 12.4997C33.0607 16.2565 36.048 19.3019 39.733 19.3019C43.1402 19.3019 45.9509 16.6983 46.3553 13.3362C46.4193 12.8042 46.617 12.2884 46.9926 11.9134L47.2305 11.676C48.1652 10.7431 49.7414 11.1663 49.7414 12.4997C49.7414 18.1348 45.2605 22.703 39.733 22.703C34.2055 22.703 29.7246 18.1348 29.7246 12.4997C29.7246 6.86456 34.2055 2.29639 39.733 2.29639Z" fill="#1E1E1E"/>
</svg>
